<svg xmlns="http://www.w3.org/2000/svg" viewBox="410 340 120 110"><defs><clipPath id="a"><path d="M426.882812 364h97.5v65h-97.5Zm0 0"/></clipPath><clipPath id="b"><path d="M437 351.191406h40V354h-40Zm0 0"/></clipPath><clipPath id="c"><path d="M426.882812 431h97.5v11.691406h-97.5Zm0 0"/></clipPath></defs><g clip-path="url(#a)"><path fill="#fff" d="M497.351562 391.0625c-11.851562-16.082031-12.695312-26.875-20.738281-26.875h-37.246093s-3.34375-.003906-9.734376 18.199219l-2.75 8.886719v27.933593l8.253907 9.101563h89.246093v-16.085938s-15.179687-5.078125-27.03125-21.160156m-54.609374 22.3125c-2.699219 0-4.886719-2.1875-4.886719-4.886719s2.1875-4.890625 4.886719-4.890625c2.699218 0 4.886718 2.191406 4.886718 4.890625s-2.1875 4.886719-4.886718 4.886719m26.882812 0c-2.699219 0-4.886719-2.1875-4.886719-4.886719s2.1875-4.890625 4.886719-4.890625 4.886719 2.191406 4.886719 4.890625-2.1875 4.886719-4.886719 4.886719m6.894531-27.277344h-38.570312c-1.910157 0-3.222657-1.921875-2.523438-3.703125l5.140625-13.109375c.40625-1.035156 1.40625-1.71875 2.523438-1.71875H472.75c1.207031 0 2.269531.800782 2.605469 1.960938l3.769531 13.109375c.496094 1.734375-.804688 3.460937-2.605469 3.460937m19.101563 25.3125L487.75 407.898438v-19.257813c2.542969 3.148437 7.871094 6.539063 7.871094 6.539063Zm9.777344 4.550782-6.308594-2.8125V397.71875c2.039062 2.523438 6.308594 5.238281 6.308594 5.238281Zm8.945312 3.246093-4.882812-2.175781v-10.660156c1.578124 1.953125 4.882812 2.769531 4.882812 2.769531Zm7.933594 2.996094-3.652344-1.632813v-8.066406c1.179688 1.460938 3.652344 2.167969 3.652344 2.167969Zm0 0"/></g><g clip-path="url(#b)"><path fill="#fff" d="M439.171875 353.882812h36.125c.738281 0 1.335937-.597656 1.335937-1.335937s-.597656-1.335937-1.335937-1.335937h-36.125c-.738281 0-1.335937.597656-1.335937 1.335937s.597656 1.335937 1.335937 1.335937m0 0"/></g><path fill="#fff" d="M450.355469 353.898438h-3.773438l9.246094 9.242187c.042969.078125.089844.152344.15625.214844l.550781.554687c.191406.191406.445313.28125.699219.273438.25.007812.503906-.082032.695313-.273438l.554687-.554687c.0625-.0625.113281-.136719.15625-.214844l9.242187-9.242187h-3.773437l-6.875 6.875Zm0 0"/><g clip-path="url(#c)"><path fill="#fff" d="M467.882812 435.703125h-19.160156v-4.585937h-13.488281v4.585937h-8.351563v6.878906h47.628907s4.324219-3.914062 9.449219-5.9375c5.125-2.019531 40.421874-.941406 40.421874-.941406v-4.585937h-56.5Zm0 0"/></g><path fill="#fff" d="M594.386311 394.000848c0 3.605469-.976563 6.871094-2.921875 9.796875-1.949219 2.917969-4.78125 5.058594-8.5 6.421875l13.140625 24.734375h-21.296875l-10.46875-21.546875h-7.046875v21.546875h-18.96875v-59.078125h36.140625c4.238281 0 7.859375.820313 10.859375 2.453125 3.007813 1.636719 5.269531 3.84375 6.78125 6.625 1.519531 2.773438 2.28125 5.789062 2.28125 9.046875m-19.328125.765625c0-1.539062-.515625-2.828125-1.546875-3.859375-1.023437-1.03125-2.277344-1.546875-3.765625-1.546875h-12.453125v10.90625h12.453125c1.488281 0 2.742188-.523438 3.765625-1.578125 1.03125-1.0625 1.546875-2.367187 1.546875-3.921875M626.319482 388.594598c6.925781 0 12.5625 1.164063 16.90625 3.484375 4.351562 2.3125 6.53125 6.074219 6.53125 11.28125v17.6875c0 .96875.226562 1.773438.6875 2.40625q.6855465.9375 2.0625.9375h3.09375v9.875c-.179688.117188-.625.304688-1.34375.5625-.710938.25-1.726562.503906-3.046875.765625-1.3125.257813-2.828125.390625-4.546875.390625q-4.9863285 0-8.203125-1.5c-2.148437-1-3.621094-2.390625-4.421875-4.171875-2.167969 1.71875-4.601562 3.09375-7.296875 4.125-2.6875 1.03125-5.835937 1.546875-9.4375 1.546875-10.648437 0-15.96875-4.234375-15.96875-12.703125 0-4.40625 1.1875-7.769531 3.5625-10.09375 2.375-2.320313 5.789063-3.910156 10.25-4.765625 4.46875-.851562 10.3125-1.28125 17.53125-1.28125v-2.234375c0-1.78125-.621094-3.125-1.859375-4.03125-1.230469-.914063-2.820312-1.375-4.765625-1.375q-2.6601555 0-4.59375.9375-1.921875.9375-1.921875 3v.34375h-16.828125c-.0625-.28125-.09375-.679687-.09375-1.203125 0-4.289062 2.046875-7.691406 6.140625-10.203125 4.09375-2.519531 9.945312-3.78125 17.5625-3.78125m6.359375 26.609375c-4.875 0-8.476563.53125-10.796875 1.59375-2.3125 1.054688-3.46875 2.46875-3.46875 4.25 0 2.867188 1.945312 4.296875 5.84375 4.296875 2.226562 0 4.1875-.597656 5.875-1.796875 1.695312-1.207031 2.546875-2.703125 2.546875-4.484375ZM661.769998 384.297723v-11.59375h17.09375v11.59375Zm0 50.65625v-45.328125h17.09375v45.328125ZM690.358586 434.953973v-62.25h17.09375v62.25ZM744.369048 374.860223c7.550781 0 13.757813 1.53125 18.625 4.59375 4.863281 3.054688 7.351563 7.585938 7.46875 13.59375v1.03125h-17.765625v-.34375c0-1.707031-.632812-3.132812-1.890625-4.28125-1.261719-1.144531-3.179687-1.71875-5.75-1.71875-2.523437 0-4.453125.375-5.796875 1.125-1.34375.742188-2.015625 1.652344-2.015625 2.734375 0 1.542969.910156 2.6875 2.734375 3.4375 1.832031.742187 4.78125 1.511719 8.84375 2.3125 4.757812.980469 8.664062 2 11.71875 3.0625 3.0625 1.054687 5.738281 2.78125 8.03125 5.1875 2.289062 2.40625 3.46875 5.667969 3.53125 9.78125 0 6.992187-2.367188 12.171875-7.09375 15.546875-4.71875 3.375-11.027344 5.0625-18.921875 5.0625q-13.828125 0-21.515625-4.640625c-5.125-3.09375-7.6875-8.554687-7.6875-16.390625h17.953125c0 2.96875.769531 4.960938 2.3125 5.96875q2.3085945 1.5 7.21875 1.5c2.394531 0 4.378906-.253906 5.953125-.765625 1.582031-.519531 2.375-1.582031 2.375-3.1875 0-1.425781-.875-2.5-2.625-3.21875-1.742188-.71875-4.589844-1.476563-8.546875-2.28125-4.804687-1.03125-8.78125-2.101563-11.9375-3.21875-3.148437-1.113281-5.890625-2.957031-8.234375-5.53125-2.34375-2.570313-3.515625-6.066406-3.515625-10.484375 0-6.46875 2.5-11.226562 7.5-14.28125q7.5117195-4.59375 19.03125-4.59375M803.775794 388.594598c8.300781 0 14.640625 1.949219 19.015625 5.84375 4.375 3.886719 6.5625 9.835937 6.5625 17.84375v2.921875h-34c0 3.261719.726563 5.726562 2.1875 7.390625 1.46875 1.65625 3.773437 2.484375 6.921875 2.484375 2.863281 0 4.96875-.597656 6.3125-1.796875 1.34375-1.207031 2.015625-2.8125 2.015625-4.8125h16.5625c0 5.492187-2.089844 9.78125-6.265625 12.875q-6.269532 4.640625-18.28125 4.640625c-8.417969 0-14.945312-1.957031-19.578125-5.875-4.636719-3.925781-6.953125-9.867188-6.953125-17.828125 0-7.78125 2.257812-13.671875 6.78125-17.671875 4.519531-4.007812 10.757812-6.015625 18.71875-6.015625m.6875 10.90625c-5.386719 0-8.390625 2.546875-9.015625 7.640625h16.65625c0-2.351562-.671875-4.210938-2.015625-5.578125q-2.015625-2.0625-5.625-2.0625M868.851299 388.594598c5.257812 0 9.207031 1.460937 11.84375 4.375 2.632812 2.917969 3.953125 7.125 3.953125 12.625v29.359375h-17.09375v-27.296875q0-2.9179695-1.5-4.6875c-1-1.175781-2.417969-1.765625-4.25-1.765625q-3.1757805 0-5.15625 2.0625c-1.3125 1.375-1.96875 3.070312-1.96875 5.078125v26.609375h-17.078125v-45.328125h13.984375l1.125 6.859375c1.769531-2.40625 4.097656-4.320312 6.984375-5.75 2.894531-1.425781 5.945312-2.140625 9.15625-2.140625M916.411179 388.594598c6.0625 0 11.195313 1.1875 15.40625 3.5625 4.207031 2.375 6.3125 6.054687 6.3125 11.03125h-15.875c0-1.664063-.746094-2.835937-2.234375-3.515625-1.03125-.570312-2.324219-.859375-3.875-.859375-4.117188 0-6.171875.96875-6.171875 2.90625 0 1.09375.710937 1.871094 2.140625 2.328125 1.4375.460938 3.785156.945312 7.046875 1.453125 4 .574219 7.34375 1.25 10.03125 2.03125 2.695313.773437 5.046875 2.148437 7.046875 4.125 2.007812 1.96875 3.015625 4.726563 3.015625 8.265625 0 5.78125-2.164063 9.90625-6.484375 12.375-4.324219 2.460938-9.980469 3.6875-16.96875 3.6875-4 0-7.777344-.558594-11.328125-1.671875-3.554687-1.113281-6.445313-2.84375-8.671875-5.1875-2.230469-2.351563-3.34375-5.332031-3.34375-8.9375h15.875v.34375c.0625 1.949219.878906 3.308594 2.453125 4.078125 1.570313.773438 3.242187 1.15625 5.015625 1.15625 4.757812 0 7.140625-1.113281 7.140625-3.34375 0-1.144531-.746094-1.972656-2.234375-2.484375-1.492188-.519531-3.921875-1.066406-7.296875-1.640625-4.074219-.6875-7.414063-1.429688-10.015625-2.234375-2.605469-.800781-4.882812-2.160156-6.828125-4.078125-1.9375-1.914062-2.90625-4.59375-2.90625-8.03125 0-5.550781 2.101563-9.5 6.3125-11.84375 4.207031-2.34375 9.6875-3.515625 16.4375-3.515625M970.75717 388.594598c8.300781 0 14.640625 1.949219 19.015625 5.84375 4.375 3.886719 6.5625 9.835937 6.5625 17.84375v2.921875h-34c0 3.261719.726563 5.726562 2.1875 7.390625 1.46875 1.65625 3.773437 2.484375 6.921875 2.484375 2.863281 0 4.96875-.597656 6.3125-1.796875 1.34375-1.207031 2.015625-2.8125 2.015625-4.8125h16.5625c0 5.492187-2.089844 9.78125-6.265625 12.875q-6.269532 4.640625-18.28125 4.640625c-8.417969 0-14.945312-1.957031-19.578125-5.875-4.636719-3.925781-6.953125-9.867188-6.953125-17.828125 0-7.78125 2.257812-13.671875 6.78125-17.671875 4.519531-4.007812 10.757812-6.015625 18.71875-6.015625m.6875 10.90625c-5.386719 0-8.390625 2.546875-9.015625 7.640625h16.65625c0-2.351562-.671875-4.210938-2.015625-5.578125q-2.015625-2.0625-5.625-2.0625m0 0"/></svg>